<?xml version="1.0" encoding="UTF-8"?>
<svg id="Calque_2" xmlns="http://www.w3.org/2000/svg" version="1.1" viewBox="0 0 607.4 332.7">
  <!-- Generator: Adobe Illustrator 29.2.1, SVG Export Plug-In . SVG Version: 2.1.0 Build 116)  -->
  <defs>
    <style>
      .st0 {
        fill: #402316;
        stroke: #d9d3c3;
        stroke-width: 2px;
      }

      .st0, .st1 {
        stroke-miterlimit: 10;
      }

      .st2 {
        isolation: isolate;
      }

      .st3 {
        fill: #462619;
      }

      .st1 {
        fill: #d9d3c3;
        stroke: #000;
      }

      .st4 {
        fill: #b8860b;
      }

      .st5 {
        fill: none;
        stroke: #b8860b;
        stroke-linecap: round;
        stroke-width: 3px;
      }
    </style>
  </defs>
  <rect class="st1" x="-29.2" y="-83.8" width="670.2" height="514.1" rx="17.3" ry="17.3"/>
  <g id="Calque_1-2">
    <g>
      <g class="st2">
        <g class="st2">
          <path class="st3" d="M100.9,307.8c-.8,0-1.5,0-2-.2-.5-.1-.8-.4-.8-.7,0-.6,1-1.1,3.1-1.4,2.4-.4,4.2-1,5.4-1.8,1.3-.9,1.9-2.2,1.9-4.2v-36.1c0-1.9-.5-3.3-1.4-4.3-.9-.9-2.6-1.4-4.9-1.6-1.1-.1-1.8-.3-2.3-.6-.5-.3-.8-.6-.8-1s.2-.5.8-.7c.5-.1,1.2-.2,2-.2h3.9c.9,0,1.8,0,2.7,0,.8,0,1.9,0,3.1,0s2.2,0,3.1-.1c.9,0,1.9-.1,3-.2,1.1,0,2.6,0,4.4,0,7.3,0,12.8.9,16.4,2.7,3.6,1.8,5.4,4.9,5.4,9.3s-.4,3.4-1.1,4.8c-.7,1.4-1.4,2.3-2.1,2.9-1,.9-1.9,1.5-2.7,2-.8.5-2,1-3.6,1.5-.3,0-.4.2-.4.4s.1.3.4.4c1.4.4,2.9.9,4.5,1.4,1.5.6,3,1.4,4.3,2.3,1.3.9,2.4,2.2,3.3,3.7.8,1.5,1.3,3.5,1.3,5.8s-.5,5.3-1.6,7c-1.1,1.7-2.4,3-3.9,3.9-1.5.9-2.9,1.7-4.2,2.2-1.9.9-4.2,1.5-6.8,2-2.6.5-5.6.7-9.2.7s-2,0-3.7-.2c-1.6-.1-3.4-.2-5.3-.2s-3,0-4.1,0c-1.1,0-2.3.1-3.5.2-1.2,0-2.7.1-4.6.1ZM120.3,277.6c1.7,0,3.5-.2,5.5-.5,2-.3,3.9-.9,5.9-1.8.7-.3,1.6-1.1,2.6-2.3,1.1-1.2,1.6-3,1.6-5.3s-.3-3.1-1-4.8c-.7-1.6-2-3-3.9-4.1-1.9-1.1-4.9-1.7-8.7-1.7s-4.2.3-5,.9c-.8.6-1.2,1.5-1.2,2.7v14c0,1.4.5,2.2,1.6,2.5,1.1.3,2,.4,2.7.4ZM123.4,304.4c2.8,0,5.3-.5,7.7-1.6,2.4-1.1,4.3-2.5,5.7-4.4,1.4-1.8,2.2-3.9,2.2-6.2s-.4-3.8-1.2-5.2c-.8-1.4-1.8-2.5-2.8-3.3-1.1-.9-2-1.5-2.9-1.8-.8-.4-2.1-.9-3.9-1.3-1.8-.5-4-.7-6.9-.7s-3.4.3-4.2,1c-.8.7-1.2,1.3-1.2,1.8v16c0,2.2.6,3.8,1.9,4.5,1.3.8,3.1,1.2,5.5,1.2Z"/>
        </g>
        <g class="st2">
          <path class="st3" d="M171.3,307.8c-.8,0-1.5,0-2-.3-.5-.2-.8-.4-.8-.8s.3-.7.8-1c.5-.3,1.3-.6,2.3-.8,1.6-.4,3.1-1.1,4.5-1.9,1.4-.9,2.6-2.3,3.6-4.3,1.8-3.4,3.4-6.6,4.8-9.6,1.5-3,2.9-5.9,4.2-8.8,1.3-2.9,2.7-5.9,4.1-9,1.4-3.1,2.9-6.5,4.5-10.2.3-.8.6-1.5.8-2.2.2-.8.4-1.6.5-2.4.6-.2,1.1-.3,1.7-.5.6-.2,1.1-.4,1.7-.7.6-.3,1-.8,1.2-1.4.2-.6.4-1.1.6-1.3,0,0,.1,0,.2,0s.2,0,.2.2c.1.2.2.5.3.8s.2.6.3,1c1.5,4.1,3.1,8.2,4.7,12.4,1.6,4.2,3.2,8.3,4.7,12.2,1.5,3.9,2.9,7.5,4.2,10.6,1.3,3.1,2.3,5.7,3.1,7.6.9,2.1,1.8,3.7,2.8,4.8,1,1.1,2.1,1.8,3.1,2.2,1.1.4,2.3.8,3.5,1,1.1.2,1.8.4,2.3.8.5.3.8.7.8,1.1s-.3.5-.8.6c-.5.1-1.2.2-2,.2s-2.1,0-3.6-.1c-1.5,0-3.1-.2-4.8-.2-1.7,0-3.3-.1-4.7-.1h-3.7c-1.3,0-2.4,0-3.5,0-1.1,0-2,0-2.7,0s-1.5,0-2-.2c-.5-.2-.8-.4-.8-.7s.3-.7.9-1c.6-.3,1.3-.5,2.2-.6,2.1-.3,3.5-.7,4.4-1.4.9-.6,1.3-1.4,1.3-2.2s-.2-2-.6-3.5c-.4-1.5-.9-3.2-1.5-4.9-.6-1.7-1.1-3.3-1.6-4.6-.1-.4-.4-.7-.7-.8-.3,0-1-.1-1.8-.1h-17.8c-.3,0-.5,0-.8.3-.3.2-.5.6-.8,1.2-.2.5-.5,1.4-.9,2.5-.4,1.2-.9,2.4-1.3,3.7-.4,1.3-.8,2.4-1.1,3.5-.3,1-.5,1.7-.5,1.9,0,1.2.5,2.2,1.6,2.9,1.1.8,2.3,1.3,3.9,1.6,2.1.5,3.1,1,3.1,1.6s-.3.6-.8.7c-.5.1-1.2.2-2,.2s-2,0-3.6,0c-1.6,0-3.2,0-5,0s-4.1,0-6,.2c-1.9.2-3.7.2-5.3.2ZM193.3,284.7h14.6c.9,0,1.3-.1,1.3-.4s0-.2,0-.4c0-.1,0-.3-.1-.4l-7.3-19.6c-.4-1-.7-1.4-.8-1.4s-.4.5-.8,1.4l-8.5,19.7c-.1.3-.2.5-.2.6,0,.3.2.4.5.5.3,0,.8,0,1.5,0Z"/>
        </g>
        <g class="st2">
          <path class="st3" d="M256.4,307.8c-.8,0-1.5,0-2-.2-.5-.1-.8-.4-.8-.7,0-.6,1-1.1,3.1-1.4,2.4-.4,4-1,4.9-1.9.9-.9,1.4-2.3,1.4-4.3v-36.1c0-1.9-.5-3.2-1.4-4-.9-.8-2.6-1.4-4.9-1.7-2.1-.3-3.1-.9-3.1-1.6s.2-.5.8-.7c.5-.1,1.2-.2,2-.2,1.7,0,3.1,0,4.1,0,1,0,2,0,3,0,.9,0,2.1,0,3.5,0s2.1,0,2.9,0c.7,0,1.5,0,2.4,0,.9,0,2.2,0,3.9,0s1.5,0,2,.2c.5.1.8.4.8.7s-.3.7-.8,1c-.5.3-1.3.5-2.3.6-2.3.4-3.7,1-4.3,2-.5.9-.8,2.2-.8,3.7v15c0,.2,0,.5,0,.9,0,.4.2.6.4.6s.7-.2,1.3-.5c.5-.3,1-.6,1.3-1l18.8-16.4c.5-.4.9-.8,1.1-1.2.2-.4.3-.8.3-1.2,0-1-.6-1.6-1.8-1.8-1.1-.3-1.8-.5-2.3-.7-.4-.2-.7-.5-.7-.9s.2-.5.8-.7c.5-.1,1.2-.2,2-.2h5.1c1.8,0,3.8,0,6,0,2.2,0,4.2-.1,6-.2,1.8,0,2.9,0,3.2,0,.6,0,1.1,0,1.5.2.4.2.6.4.6.6s-.3.7-.8,1c-.5.3-1.3.5-2.3.6-2.3.4-4.7,1-7.2,1.8s-4.9,2-7,3.5c-2.3,1.6-4.3,3.2-6.2,4.7-1.9,1.5-3.8,3.1-5.7,4.7-1.9,1.6-3.9,3.5-6.1,5.6-.4.3-.2.8.5,1.4l22.7,20.7c1.4,1.3,2.5,2.3,3.3,3,.8.7,1.8,1.2,2.8,1.6,1,.4,2.4.8,4.2,1.1,1.1.2,1.8.4,2.3.6.5.2.8.5.8.8s-.2.5-.8.7-1.2.2-2,.2c-1.8,0-3.4,0-4.7-.1-1.3,0-2.6-.1-3.9-.2-1.3,0-2.8,0-4.5,0s-2.2,0-3.1,0c-.9,0-2.4,0-4.5,0s-1.5,0-2-.2c-.5-.1-.8-.4-.8-.7,0-.6.8-1,2.5-1.4,1.8-.4,2.6-.9,2.6-1.6s-.1-.6-.4-1c-.3-.3-.6-.7-1-1l-19.9-18.8c-.4-.3-.8-.6-1.2-.9-.4-.3-.7-.4-1-.4s-.4.2-.4.6v1c0,2.5,0,4.9.1,7.2,0,2.3.2,5,.3,8.2,0,1.1.3,2.2.6,3.1.3,1,.9,1.8,1.8,2.4.8.6,2.1,1.1,3.6,1.4,1.1.2,1.8.3,2.3.6.5.2.8.5.8.9s-.3.5-.8.7c-.5.1-1.2.2-2,.2-1.7,0-3,0-3.9-.2-.9-.1-1.7-.2-2.4-.3-.7,0-1.7-.1-2.9-.1s-2.8,0-4,.1c-1.2,0-2.3.2-3.5.3-1.2.1-2.6.2-4.3.2Z"/>
          <path class="st3" d="M337.9,307.8c-.8,0-1.5,0-2-.2-.5-.1-.8-.4-.8-.7,0-.6,1-1.1,3.1-1.4,2.4-.4,4.1-1,5.3-1.8,1.1-.9,1.7-2.2,1.7-4.2v-36.1c0-1.9-.5-3.3-1.4-4.1-.9-.8-2.6-1.4-4.9-1.8-1.1-.2-1.8-.4-2.3-.6-.5-.3-.8-.6-.8-1s.2-.5.8-.7c.5-.1,1.2-.2,2-.2,2.4,0,4.4,0,6.1,0,1.7,0,3.3,0,4.9.1,1.6,0,3.5,0,5.7,0s4.2,0,6.5,0c2.3,0,4.4,0,6.3,0,2.1,0,3.9,0,5.4-.1,1.5,0,2.3,0,2.6,0s.7,0,1,.2c.4.1.6.3.7.6.3,1.5.6,3,.9,4.5.3,1.5.5,2.7.5,3.8s-.1.8-.4,1-.6.2-.9.2-.5,0-.7-.2c-.1-.1-.3-.3-.4-.6-.3-.9-.6-1.8-.9-2.6-.3-.8-.7-1.4-1.1-1.8-.9-.9-1.8-1.4-2.9-1.7-1.1-.3-2.2-.4-3.4-.4h-12.3c-.5,0-1.2.2-2.1.7-.9.5-1.3,1.1-1.3,1.8v17c0,.5.2.9.5,1.2.3.3.7.5,1.2.5h9.3c1.8,0,3.1-.3,3.8-.8.7-.6,1.3-1.6,1.7-3.1.4-1.2.9-1.8,1.7-1.8s.5.1.8.3c.3.2.4.5.4,1s0,.7,0,1.4c0,.8,0,1.5-.1,2.3,0,.8,0,1.4,0,1.8s0,1.2,0,2.1c0,.9,0,1.7,0,2.5,0,.8,0,1.3,0,1.5,0,.4,0,.7-.1,1,0,.3-.3.4-.7.4-.9,0-1.7-.9-2.2-2.6-.4-1.2-.9-2.1-1.5-2.7s-1.6-.9-2.8-.9h-8.7c-1.1,0-1.9.1-2.4.4-.5.2-.8.8-.8,1.7v15.4c0,2,.5,3.4,1.5,4.2s2.6,1.2,4.7,1.2h7c2,0,3.7,0,5-.3,1.3-.2,2.5-.5,3.5-1.1,1-.6,1.9-1.4,2.7-2.3.8-1,1.7-2.2,2.7-3.9.2-.3.4-.6.7-.8.2-.2.5-.3.8-.2.3,0,.6.2.8.4.2.2.3.4.3.8,0,.5-.2,1.3-.5,2.5-.3,1.2-.7,2.4-1.2,3.7s-.9,2.3-1.3,3.1c-.2.4-.4.7-.5,1s-.4.4-.8.4c-3,0-5.8,0-8.4,0-2.6,0-5-.1-7.3-.2-2.3,0-4.6-.1-6.8-.2-2.2,0-4.5,0-6.9,0s-2.6,0-3.6.1-2,.2-3.1.2c-1.1,0-2.4.1-4.1.1Z"/>
        </g>
        <g class="st2">
          <path class="st3" d="M463.6,309c-1.8,0-3.4-.1-5-.4-1.6-.2-3-.7-4.3-1.3s-2.5-1.5-3.7-2.6c-1.5-1.6-2.9-3.1-4.3-4.6-1.4-1.5-2.8-3.2-4.4-5.1-1.5-1.9-3.4-4.4-5.6-7.4-.9-1.3-2.3-2.4-4-3.1-1.4-.6-2.7-1-4.1-1.2-1.3-.2-2.5-.4-3.3-.4-.5,0-.9,0-1.1.4-.2.3-.3.7-.3,1.2v14.1c0,1.7.5,3.2,1.4,4.5s2.6,2.1,4.9,2.4c1.1.2,1.8.3,2.3.6.5.2.8.5.8.9s-.3.5-.8.7c-.5.1-1.2.2-2,.2-1.7,0-3,0-3.9-.2-.9-.1-1.7-.2-2.4-.3-.7,0-1.7-.1-2.9-.1s-3,0-4.2.1c-1.2,0-2.4.2-3.7.3-1.2.1-2.7.2-4.4.2s-1.5,0-2-.2c-.5-.1-.8-.4-.8-.7,0-.6,1-1.1,3.1-1.4,2.4-.4,4.1-1,5.2-1.8,1.1-.9,1.6-2.3,1.6-4.3v-34.2c0-2-.1-3.6-.3-4.6-.2-1-.7-1.8-1.5-2.2-.8-.4-2.1-.7-3.9-.9-1.1-.1-1.8-.3-2.3-.6-.5-.3-.8-.6-.8-1s.2-.5.8-.7c.5-.1,1.2-.2,2-.2h3.8c.8,0,1.6,0,2.4,0,.8,0,1.8,0,3,0s2.3,0,3.2-.1c.9,0,2-.1,3.1-.2,1.2,0,2.6,0,4.5,0,6.9,0,12.1,1.1,15.7,3.3,3.6,2.2,5.4,5.5,5.4,9.9s-.6,4.5-1.7,6.2c-1.1,1.7-2.5,3.2-4.2,4.4-1.7,1.2-3.4,2.1-5.2,2.9-.3,0-.4.2-.3.4,0,.2.1.4.3.7,1.9,2.5,3.8,4.9,5.6,7.1,1.8,2.2,3.7,4.4,5.9,6.6,2.1,2.1,4.7,4.4,7.6,6.7,1.6,1.2,3.3,2,5,2.2,1.7.3,3.6.4,5.8.4s1.4.3,1.4.9-.5,1.4-1.4,1.8-2,.7-3.2.8c-1.2.1-2.2.2-3,.2ZM428.4,280.9c2.9,0,5.4-.6,7.5-1.7,2.1-1.1,3.7-2.6,4.9-4.4,1.2-1.8,1.7-3.7,1.7-5.8s-.3-4.2-1-6c-.7-1.8-2-3.3-3.9-4.4-2-1.1-4.9-1.6-8.9-1.6s-3.3.6-3.9,1.6c-.6,1.1-1,3-1.1,5.8,0,1.3-.1,3.1-.1,5.4,0,2.3,0,5,0,8.2s.4,2.1,1.3,2.4c.9.3,2.1.4,3.7.4Z"/>
        </g>
        <g class="st2">
          <path class="st3" d="M498.3,307.8c-.8,0-1.5,0-2-.2-.5-.1-.8-.4-.8-.7s.2-.7.8-.9c.5-.2,1.3-.4,2.3-.6,2.4-.4,4.2-1.1,5.4-2.2,1.3-1.1,1.9-2.6,1.9-4.5v-11.9c0-1.1-.3-2.2-1-3.5-.7-1.3-1.1-2.1-1.4-2.4l-11-15.4c-.4-.6-1.1-1.5-2.1-2.7-.9-1.2-2-2.2-3.1-3.3-1.1-1-2.2-1.7-3.2-1.9-1-.3-1.8-.5-2.3-.8-.5-.3-.8-.6-.8-1s.2-.5.8-.7c.5-.1,1.2-.2,2-.2,1.4,0,3.1,0,5,.1s3.9.1,6,.1,2.8,0,4.1,0c1.3,0,2.4,0,3.4,0s1.5,0,2,.2c.5.1.8.4.8.7s-.3.7-.8.9c-.5.2-1.3.5-2.3.7-.9.2-1.6.5-2.2.7-.6.3-.8.7-.8,1.3s.4,1.7,1.2,2.9l8.6,13.7c1.3,2,2.1,3.1,2.6,3.1s.8-.2,1.2-.7c.4-.5,1.1-1.2,1.9-2.4,1.4-1.9,2.7-3.7,3.9-5.4,1.1-1.7,2.5-3.8,4-6.2.6-.9,1.1-1.7,1.3-2.4.2-.7.4-1.2.4-1.7,0-1-.4-1.7-1.3-2.1-.8-.4-1.7-.6-2.6-.7-.6-.1-1.3-.3-2-.6-.7-.3-1.1-.6-1.1-1s.2-.5.8-.7c.5-.1,1.2-.2,2-.2,1.4,0,2.6,0,3.6,0,.9,0,2.1,0,3.5,0s3.8,0,5.5-.1c1.8,0,3.2-.1,4.2-.1s1.5,0,2,.2c.5.1.8.4.8.7s-.5.7-1.5,1c-1,.3-2.2.6-3.5,1-1.6.4-3,1.1-4.1,2.3-1.1,1.2-2.5,2.8-4.2,5-1.3,1.7-2.3,3.1-3.1,4.2-.8,1.1-1.6,2.2-2.3,3.1-.7,1-1.5,2-2.2,3-.8,1-1.7,2.3-2.7,3.8-.8,1.1-1.4,2-1.7,2.7-.3.7-.5,1.4-.6,2,0,.6,0,1.5,0,2.5v12.2c0,1.8.7,3.3,2,4.5,1.3,1.2,3.1,1.9,5.4,2.3,1.1.2,1.8.3,2.3.6.5.2.8.5.8.9s-.3.5-.8.7c-.5.1-1.2.2-2,.2-1.7,0-3.1,0-4.2-.1-1.1,0-2.1-.1-3.1-.2-1,0-2.2,0-3.7,0s-2.9,0-4.1,0c-1.2,0-2.3.1-3.6.2-1.2,0-2.7.1-4.4.1Z"/>
        </g>
      </g>
      <g>
        <path class="st4" d="M556.4,1.8c.2.4.6,1.1,1,2,1.9,3.9,2.9,5.9,3.1,7.6.2,1.7-.3,1.6-.7,5.2,0,.1-.4,3.9-.1,7,.5,5.4,3,9.4,4,11,4.1,6.2,10,8.6,12.3,9.5,1.7-2.9,2.3-5.4,2.5-6.9,1.3-8.9-4.8-16.1-6.8-18.6-2.4-2.8-4.9-4.7-4.9-4.7-2.8-2.1-3.2-1.5-4.5-3-1.4-1.6-1.3-2.8-3.7-7.7-.4-.8-.7-1.5-1-1.9-.2-.4-.7-.6-1-.4-.3.2-.5.7-.2,1.1h0Z"/>
        <path class="st4" d="M585.6,92.8c14.2-3.8,20.3-22.8,17.5-36.2-10,8.1-23.8,22.5-17.5,36.2Z"/>
        <path class="st4" d="M606,121.3l-16.8,7.4c-3.9,1.7-14.8,14.8-12.8,19.3,5.4,12.4,31-18.2,29.6-26.7Z"/>
        <path class="st4" d="M607.4,89.7c-10.5,4.4-23.4,13.7-25.4,25.6-.8,4.8,1.2,6.9,6,5.1,10-3.8,18.6-20.4,19.4-30.7h0Z"/>
        <path class="st4" d="M556.4,117.5c-3.9,10.9-.4,30.6,13.4,31.6,9.2-12.8-3.2-24.7-13.4-31.6Z"/>
        <path class="st4" d="M559.1,91.7c-3.4,10.9,5.1,30.3,18,30.7,6.9-14.2-7.8-24-18-30.7Z"/>
        <path class="st4" d="M548.6,44.6c2.6,6.9,6.4,13.5,12.2,18.3,3.4,2.8,13.7,8.5,16.8,3.2-1.4-12.8-17-21.6-29-21.5h0Z"/>
        <path class="st4" d="M554.9,67.7c2.1,8.2,4.1,13.3,9.9,19.6,13.5,14.7,21.9,4.7,9.8-9.2-4.1-4.7-13.2-11-19.8-10.3h0Z"/>
        <path class="st4" d="M582.5,65.8c14-6.3,13.1-24.3,10.7-37.1-9.1,9.4-18.1,24.2-10.7,37.1Z"/>
      </g>
      <path class="st5" d="M564,159.8c-4.3,10.4-10.3,22.3-18.9,34.7-9.3,13.4-19.3,24.2-28.5,32.8"/>
      <g>
        <path class="st4" d="M51,1.1c-.2.4-.6,1.1-1,1.9-1.9,3.9-2.9,5.9-3.1,7.6-.2,1.7.3,1.6.7,5.2,0,.2.4,3.9.1,7-.5,5.4-3,9.5-4,11-4.1,6.2-10,8.7-12.3,9.5-1.7-2.9-2.3-5.4-2.5-6.9-1.3-8.9,4.8-16.1,6.8-18.6,2.4-2.8,4.9-4.7,4.9-4.7,2.8-2.1,3.2-1.5,4.5-3,1.4-1.6,1.3-2.8,3.7-7.7.4-.8.7-1.5,1-1.9.2-.4.7-.6,1-.4.3.2.5.7.2,1.1h0Z"/>
        <path class="st4" d="M21.8,92.1c-14.1-3.8-20.3-22.8-17.5-36.2,10,8.1,23.8,22.5,17.5,36.2Z"/>
        <path class="st4" d="M1.4,120.7l16.8,7.4c3.9,1.7,14.8,14.8,12.8,19.3C25.6,159.8,0,129.2,1.4,120.7Z"/>
        <path class="st4" d="M0,89c10.5,4.4,23.4,13.7,25.4,25.6.8,4.8-1.2,6.9-6.1,5.1C9.3,115.9.8,99.3,0,89Z"/>
        <path class="st4" d="M51,116.8c3.9,10.9.4,30.6-13.4,31.6-9.2-12.8,3.2-24.7,13.4-31.6Z"/>
        <path class="st4" d="M48.3,91c3.4,10.9-5.1,30.3-18,30.7-6.9-14.2,7.8-24,18-30.7Z"/>
        <path class="st4" d="M58.8,44c-2.6,6.9-6.4,13.5-12.2,18.3-3.4,2.8-13.7,8.5-16.8,3.2,1.4-12.8,17-21.6,29-21.5h0Z"/>
        <path class="st4" d="M52.5,67c-2.1,8.2-4.1,13.3-9.9,19.6-13.5,14.7-21.9,4.7-9.8-9.2,4.1-4.7,13.2-11,19.8-10.3h0Z"/>
        <path class="st4" d="M24.9,65.1c-14-6.3-13.1-24.3-10.7-37.1,9.1,9.4,18.1,24.2,10.7,37.1Z"/>
      </g>
      <path class="st5" d="M42.8,157.5c4.4,10.6,10.5,22.8,19.2,35.5,9.4,13.7,19.5,24.8,28.8,33.6"/>
      <path class="st0" d="M110.4,3.5c0,70.9-.2,141.9-.2,212.8,16.9-.2,33.8-.4,50.7-.5-.1-20.3-.2-40.6-.4-60.9l21.2-21.2c21.8,27.5,43.5,55,65.3,82.5,20.3,0,40.7,0,61-.1-31.6-39-63.3-78-94.9-117.1,29.6-32,59.2-64,88.8-95.9h-60.7c-26.8,29.4-53.6,58.7-80.4,88.1-.2-29.1-.4-58.3-.7-87.4-16.6,0-33.2-.2-49.8-.2Z"/>
      <path class="st0" d="M526.2,104c-.1-2.2-.3-3.9-.4-5.1-3.2-29.8-17.9-49.3-21-53.3-28.4-36.5-72.2-39.9-79.8-40.3-35.4,0-70.7-.2-106-.2,0,14.8.1,29.5.2,44.3,34.5.3,69,.7,103.6,1.1,5.5.7,19.8,3.2,32.7,14.8,15.8,14.2,18.8,32.2,19.5,38.1.6,5,2.3,25.2-11.7,43.7-16,21.2-40.2,23.5-44,23.8-20.8.1-41.5.2-62.3.3v-22.7l.2-67.9-39.8.7.4,134.2h2.6c-.2.3-.5.7-.7,1,37.7-.7,75.3-1.4,113-2.1,6.6-.6,46.2-4.9,72.6-39.2,0,0,23.6-30.5,21-71h0Z"/>
    </g>
  </g>
</svg>