<?xml version="1.0" encoding="UTF-8"?>
<svg id="Calque_2" data-name="Calque 2" xmlns="http://www.w3.org/2000/svg" viewBox="0 0 607.4 332.73">
  <defs>
    <style>
      .cls-1 {
        fill: #462619;
        font-family: EBGaramondRoman-Medium, 'EB Garamond';
        font-size: 80.3px;
        font-variation-settings: 'wght' 500;
        font-weight: 500;
      }

      .cls-2 {
        fill: #402316;
        stroke: #d9d3c3;
        stroke-miterlimit: 10;
        stroke-width: 2px;
      }

      .cls-3 {
        letter-spacing: .17em;
      }

      .cls-4 {
        letter-spacing: .17em;
      }

      .cls-5 {
        letter-spacing: .18em;
      }

      .cls-6 {
        fill: #b8860b;
      }

      .cls-7 {
        fill: none;
        stroke: #b8860b;
        stroke-linecap: round;
        stroke-width: 3px;
      }

      .cls-8 {
        letter-spacing: .1em;
      }
    </style>
  </defs>
  <g id="Calque_1-2" data-name="Calque 1">
    <g>
      <text class="cls-1" transform="translate(96.41 307.35) scale(1.17 1)"><tspan class="cls-4" x="0" y="0">B</tspan><tspan class="cls-3" x="61.83" y="0">A</tspan><tspan class="cls-5" x="131.94" y="0">KE</tspan><tspan class="cls-8" x="262.67" y="0">R</tspan><tspan class="cls-5" x="328.92" y="0">Y</tspan></text>
      <g>
        <path class="cls-6" d="M556.42,1.8c.22.44.57,1.12.98,1.95,1.92,3.93,2.89,5.93,3.08,7.63.2,1.72-.3,1.64-.69,5.2-.02.15-.41,3.86-.12,7,.48,5.36,2.96,9.45,3.98,10.97,4.14,6.19,10.04,8.65,12.29,9.45,1.74-2.89,2.3-5.39,2.52-6.92,1.27-8.92-4.81-16.15-6.85-18.58-2.39-2.84-4.87-4.7-4.87-4.7-2.81-2.11-3.2-1.54-4.48-3-1.41-1.62-1.33-2.77-3.71-7.74-.4-.83-.74-1.51-.95-1.92-.18-.42-.65-.58-.96-.43-.34.16-.49.69-.21,1.09Z"/>
        <path class="cls-6" d="M585.59,92.78c14.15-3.84,20.33-22.75,17.48-36.15-9.97,8.13-23.84,22.52-17.48,36.15Z"/>
        <path class="cls-6" d="M605.96,121.33l-16.75,7.44c-3.9,1.73-14.78,14.79-12.82,19.29,5.39,12.4,30.98-18.24,29.57-26.73Z"/>
        <path class="cls-6" d="M607.4,89.65c-10.52,4.39-23.39,13.67-25.42,25.6-.81,4.79,1.23,6.91,6.05,5.1,10.03-3.76,18.56-20.37,19.36-30.7Z"/>
        <path class="cls-6" d="M556.37,117.5c-3.94,10.91-.41,30.62,13.41,31.59,9.17-12.79-3.16-24.7-13.41-31.59Z"/>
        <path class="cls-6" d="M559.12,91.69c-3.44,10.88,5.09,30.33,18.01,30.71,6.89-14.19-7.76-24.04-18.01-30.71Z"/>
        <path class="cls-6" d="M548.58,44.63c2.58,6.93,6.4,13.54,12.23,18.26,3.43,2.78,13.66,8.5,16.81,3.2-1.4-12.81-17.03-21.59-29.03-21.46Z"/>
        <path class="cls-6" d="M554.94,67.67c2.13,8.21,4.12,13.26,9.93,19.56,13.54,14.69,21.94,4.74,9.82-9.23-4.07-4.69-13.17-10.99-19.75-10.34Z"/>
        <path class="cls-6" d="M582.54,65.75c14.03-6.27,13.13-24.34,10.68-37.09-9.1,9.35-18.07,24.22-10.68,37.09Z"/>
      </g>
      <path class="cls-7" d="M564.02,159.77c-4.28,10.4-10.31,22.28-18.91,34.71-9.29,13.42-19.35,24.25-28.55,32.77"/>
      <g>
        <path class="cls-6" d="M50.98,1.15c-.22.44-.57,1.12-.98,1.95-1.92,3.93-2.89,5.93-3.08,7.63-.2,1.72.3,1.64.69,5.2.02.15.41,3.86.12,7-.48,5.36-2.96,9.45-3.98,10.97-4.14,6.19-10.04,8.65-12.29,9.45-1.74-2.89-2.3-5.39-2.52-6.92-1.27-8.92,4.81-16.15,6.85-18.58,2.39-2.84,4.87-4.7,4.87-4.7,2.81-2.11,3.2-1.54,4.48-3,1.41-1.62,1.33-2.77,3.71-7.74.4-.83.74-1.51.95-1.92.18-.42.65-.58.96-.43.34.16.49.69.21,1.09Z"/>
        <path class="cls-6" d="M21.81,92.12c-14.15-3.84-20.33-22.75-17.48-36.15,9.97,8.13,23.84,22.52,17.48,36.15Z"/>
        <path class="cls-6" d="M1.44,120.67l16.75,7.44c3.9,1.73,14.78,14.79,12.82,19.29C25.62,159.8.03,129.17,1.44,120.67Z"/>
        <path class="cls-6" d="M0,88.99c10.52,4.39,23.39,13.67,25.42,25.6.81,4.79-1.23,6.91-6.05,5.1C9.33,115.93.8,99.32,0,88.99Z"/>
        <path class="cls-6" d="M51.03,116.84c3.94,10.91.41,30.62-13.41,31.59-9.17-12.79,3.16-24.7,13.41-31.59Z"/>
        <path class="cls-6" d="M48.28,91.03c3.44,10.88-5.09,30.33-18.01,30.71-6.89-14.19,7.76-24.04,18.01-30.71Z"/>
        <path class="cls-6" d="M58.82,43.97c-2.58,6.93-6.4,13.54-12.23,18.26-3.43,2.78-13.66,8.5-16.81,3.2,1.4-12.81,17.03-21.59,29.03-21.46Z"/>
        <path class="cls-6" d="M52.46,67.02c-2.13,8.21-4.12,13.26-9.93,19.56-13.54,14.69-21.94,4.74-9.82-9.23,4.07-4.69,13.17-10.99,19.75-10.34Z"/>
        <path class="cls-6" d="M24.85,65.1c-14.03-6.27-13.13-24.34-10.68-37.09,9.1,9.35,18.07,24.22,10.68,37.09Z"/>
      </g>
      <path class="cls-7" d="M42.84,157.52c4.36,10.63,10.47,22.77,19.18,35.49,9.39,13.73,19.55,24.84,28.83,33.57"/>
      <path class="cls-2" d="M110.4,3.48c-.07,70.94-.15,141.88-.22,212.81,16.91-.17,33.83-.35,50.74-.52-.12-20.3-.25-40.6-.37-60.9,7.07-7.07,14.15-14.15,21.22-21.22,21.76,27.5,43.53,55,65.29,82.5,20.34-.04,40.69-.07,61.03-.11-31.65-39.02-63.29-78.04-94.94-117.06,29.59-31.98,59.18-63.96,88.77-95.95h-60.68c-26.8,29.37-53.6,58.73-80.4,88.1-.22-29.14-.45-58.28-.67-87.43-16.59-.07-33.18-.15-49.77-.22Z"/>
      <path class="cls-2" d="M526.17,104.04c-.14-2.15-.31-3.88-.44-5.11-3.19-29.79-17.93-49.34-21.04-53.32-28.41-36.45-72.17-39.88-79.77-40.35-35.35-.07-70.7-.15-106.05-.22.07,14.76.15,29.52.22,44.27,34.52.35,69.04.71,103.56,1.06,5.49.69,19.76,3.23,32.66,14.78,15.81,14.17,18.78,32.25,19.46,38.14.58,5.01,2.29,25.22-11.71,43.71-16.05,21.21-40.16,23.5-43.96,23.8-20.78.1-41.55.19-62.33.29v-22.73l.17-67.95-39.75.66.41,134.22h2.57c-.23.34-.46.68-.68,1.02,37.67-.69,75.34-1.39,113-2.08,6.62-.6,46.25-4.86,72.65-39.17,0,0,23.63-30.54,21.04-71Z"/>
    </g>
  </g>
</svg>